<svg xmlns="http://www.w3.org/2000/svg" viewBox="0 0 512 512">
  <defs>
    <linearGradient id="bg" x1="0" y1="0" x2="1" y2="1">
      <stop offset="0%" stop-color="#1a1a2e"/>
      <stop offset="100%" stop-color="#0f3460"/>
    </linearGradient>
    <linearGradient id="book" x1="0" y1="0" x2="0" y2="1">
      <stop offset="0%" stop-color="#e94560"/>
      <stop offset="100%" stop-color="#a855f7"/>
    </linearGradient>
  </defs>
  <rect width="512" height="512" rx="96" fill="url(#bg)"/>
  <!-- Book body -->
  <path d="M150 120 C150 120 256 140 256 140 L256 380 C256 380 150 360 150 360 Z" fill="url(#book)" opacity="0.9"/>
  <path d="M362 120 C362 120 256 140 256 140 L256 380 C256 380 362 360 362 360 Z" fill="url(#book)" opacity="0.7"/>
  <!-- Pages -->
  <path d="M170 140 L246 156 L246 370 L170 354 Z" fill="#e2e8f0" opacity="0.15"/>
  <path d="M342 140 L266 156 L266 370 L342 354 Z" fill="#e2e8f0" opacity="0.1"/>
  <!-- Pen -->
  <line x1="320" y1="100" x2="370" y2="390" stroke="#e94560" stroke-width="6" stroke-linecap="round" opacity="0.8"/>
  <polygon points="370,390 364,405 376,405" fill="#e94560" opacity="0.8"/>
  <!-- Star sparkle -->
  <circle cx="180" cy="100" r="6" fill="#f59e0b"/>
  <circle cx="380" cy="80" r="4" fill="#a855f7"/>
  <circle cx="130" cy="300" r="3" fill="#38bdf8"/>
</svg>
